<svg width="1697" height="1044" viewBox="0 0 1697 1044" fill="none" xmlns="http://www.w3.org/2000/svg">
<g filter="url(#filter0_d_14_2)">
<path d="M880.314 10.001L963.173 13.6602L963.216 13.6621L963.258 13.668L1036.98 23.4258L1036.99 23.4268L1109.77 33.7949L1109.81 33.8018L1109.85 33.8125L1194.29 53.9385L1194.35 53.9531L1194.41 53.9775L1277.64 86.3232L1277.69 86.3496L1373.15 137.275L1373.2 137.3L1373.24 137.331L1457.36 195.271L1457.4 195.297L1457.43 195.327L1520.83 249.06L1520.89 249.135L1567.83 309.514L1567.86 309.543L1599.36 353.454L1599.39 353.496L1599.42 353.54L1625.88 400.807L1625.93 400.899L1630.71 414.66L1633.44 426.857L1633.23 429.297L1626.93 441.495L1619.26 453.222L1619.19 453.342L1619.09 453.437L1593.57 477.222L1593.56 477.234L1540.88 524.556L1540.81 524.6L1440.57 586.842L1440.51 586.868L1316.38 642.368L1316.36 642.377L1316.34 642.384L1265.58 662.526L1265.54 662.539L1231.51 672.603L1231.51 672.604L1231.5 672.605L1201.26 681.145L1201.23 681.152L1201.2 681.158L1175.4 686.74L1278.49 1034H1067.44L777.49 10H880.293L880.314 10.001ZM1067.44 353.454L1126.71 533.588L1126.79 533.576L1162.7 528.088L1162.78 528.077L1162.85 528.055L1236.25 505.184L1236.29 505.171L1236.34 505.153L1293.99 481.063L1364.87 451.79L1364.93 451.767L1402.47 430.391L1402.51 430.37L1402.54 430.346L1417.12 420.759L1429.09 408.562L1425.62 393.009L1413.96 375.322L1396.37 358.827L1396.35 358.809L1396.33 358.792L1365.14 331.042L1365.12 331.018L1365.09 330.996L1294.12 276.956L1247.93 252.125L1198.16 229.864L1149.32 207.604L1096.79 187.868L1096.73 187.839L1048.15 173.793L1048.11 173.782L1048.07 173.774L1031.5 169.5L1010.5 166.436L1067.44 353.454Z" fill="#1F3A5F"/>
</g>
<g filter="url(#filter1_d_14_2)">
<path d="M712.227 10.001L744.098 11.8506L1034 1033.39H817.07L736.275 740.693H638.794L611.378 739.785L572.228 734.611L528.851 727.375L477.064 713.754L434.693 699.83L326.163 1034H123.34L262.801 614.585L249.424 607.812L233.639 602.97L210.601 599.942H180.909L147.621 614.977L98.6768 649.734L64.8906 674.253L64.8086 674.312L64.7148 674.35L10 696.097L49.3594 645.109L76.6797 598.66L92.4258 536.156L109.022 452.413L112.892 372.354L101.829 279.852L83.5781 190.087L63.9561 142.36L42.3643 93.9502L11.9014 27.6611L13.1455 26.5293L58.5625 64.0625L58.5869 64.082L58.6094 64.1045L99.0146 102.822L138.235 134.219L180.919 154.686H231.929L292.143 147.138L357.938 118.13L399.992 98.4746L458.392 63.9883L458.433 63.9639L511.923 40.335L511.993 40.3047L512.067 40.2871L574.122 26.3584L574.144 26.3555L672.455 10.0098L672.518 10H712.204L712.227 10.001ZM585.804 171.775L482.947 529.097L505.335 536.94L505.408 536.966L505.484 536.976L536.225 541.214H536.227L572.228 546.058L572.252 546.061L572.275 546.062L619.077 549.392L619.104 549.394H696.638L606.442 166.619L585.804 171.775ZM386.424 236.501C369.527 245.352 339.954 256.928 280.749 309.255L280.715 309.284L280.685 309.318C273.915 316.709 269.054 322.895 265.728 330.216C262.397 337.546 260.636 345.947 259.949 357.729L259.946 357.768L259.947 357.808C260.46 381.524 276.443 401.128 291.991 415.166C299.788 422.206 307.532 427.895 313.272 432.044C316.152 434.125 318.506 435.804 320.128 437.08C320.941 437.72 321.539 438.234 321.918 438.63C322.096 438.816 322.201 438.951 322.255 439.036V439.039C322.257 439.091 322.273 439.215 322.291 439.289C322.332 439.408 322.5 439.672 322.641 439.796C322.833 439.896 323.2 439.932 323.357 439.893C323.449 439.852 323.587 439.764 323.636 439.722C323.718 439.646 323.77 439.568 323.788 439.542C323.864 439.429 323.94 439.268 324 439.14C324.14 438.839 324.348 438.35 324.615 437.699C325.153 436.389 325.953 434.365 326.974 431.733C329.016 426.467 331.95 418.744 335.442 409.375C342.428 390.637 351.657 365.307 360.487 339.86C369.316 314.417 377.754 288.84 383.154 269.616C385.852 260.012 387.803 251.956 388.66 246.285C389.086 243.464 389.255 241.154 389.078 239.519C388.99 238.706 388.807 237.961 388.454 237.396C388.069 236.781 387.495 236.412 386.783 236.412H386.595L386.424 236.501Z" fill="#1B4332"/>
</g>
<defs>
<filter id="filter0_d_14_2" x="773.49" y="10" width="863.945" height="1032" filterUnits="userSpaceOnUse" color-interpolation-filters="sRGB">
<feFlood flood-opacity="0" result="BackgroundImageFix"/>
<feColorMatrix in="SourceAlpha" type="matrix" values="0 0 0 0 0 0 0 0 0 0 0 0 0 0 0 0 0 0 127 0" result="hardAlpha"/>
<feOffset dy="4"/>
<feGaussianBlur stdDeviation="2"/>
<feComposite in2="hardAlpha" operator="out"/>
<feColorMatrix type="matrix" values="0 0 0 0 0 0 0 0 0 0 0 0 0 0 0 0 0 0 0.25 0"/>
<feBlend mode="normal" in2="BackgroundImageFix" result="effect1_dropShadow_14_2"/>
<feBlend mode="normal" in="SourceGraphic" in2="effect1_dropShadow_14_2" result="shape"/>
</filter>
<filter id="filter1_d_14_2" x="6" y="10" width="1032" height="1032" filterUnits="userSpaceOnUse" color-interpolation-filters="sRGB">
<feFlood flood-opacity="0" result="BackgroundImageFix"/>
<feColorMatrix in="SourceAlpha" type="matrix" values="0 0 0 0 0 0 0 0 0 0 0 0 0 0 0 0 0 0 127 0" result="hardAlpha"/>
<feOffset dy="4"/>
<feGaussianBlur stdDeviation="2"/>
<feComposite in2="hardAlpha" operator="out"/>
<feColorMatrix type="matrix" values="0 0 0 0 0 0 0 0 0 0 0 0 0 0 0 0 0 0 0.25 0"/>
<feBlend mode="normal" in2="BackgroundImageFix" result="effect1_dropShadow_14_2"/>
<feBlend mode="normal" in="SourceGraphic" in2="effect1_dropShadow_14_2" result="shape"/>
</filter>
</defs>
</svg>
